<mxfile host="app.diagrams.net" modified="2020-07-14T18:41:21.338Z" agent="5.0 (Macintosh; Intel Mac OS X 10_15_5) AppleWebKit/537.36 (KHTML, like Gecko) Chrome/83.0.4103.116 Safari/537.36" etag="yBUt3FzYpZpzEYcoqMev" version="13.4.2" type="github">
  <diagram id="bSueK2B_DSokIzOHAojS" name="Page-1">
    <mxGraphModel dx="2066" dy="1105" grid="1" gridSize="10" guides="1" tooltips="1" connect="1" arrows="1" fold="1" page="1" pageScale="1" pageWidth="827" pageHeight="1169" math="0" shadow="0">
      <root>
        <mxCell id="0" />
        <mxCell id="1" parent="0" />
        <mxCell id="-fQMSUDnfjwQ-CEq6eAJ-5" style="edgeStyle=orthogonalEdgeStyle;rounded=0;orthogonalLoop=1;jettySize=auto;html=1;entryX=0;entryY=0.5;entryDx=0;entryDy=0;" edge="1" parent="1" source="-fQMSUDnfjwQ-CEq6eAJ-1" target="-fQMSUDnfjwQ-CEq6eAJ-2">
          <mxGeometry relative="1" as="geometry" />
        </mxCell>
        <mxCell id="-fQMSUDnfjwQ-CEq6eAJ-1" value="Processor" style="rounded=0;whiteSpace=wrap;html=1;fillColor=#dae8fc;strokeColor=#6c8ebf;" vertex="1" parent="1">
          <mxGeometry x="120" y="330" width="120" height="60" as="geometry" />
        </mxCell>
        <mxCell id="-fQMSUDnfjwQ-CEq6eAJ-6" style="edgeStyle=orthogonalEdgeStyle;rounded=0;orthogonalLoop=1;jettySize=auto;html=1;" edge="1" parent="1" source="-fQMSUDnfjwQ-CEq6eAJ-2" target="-fQMSUDnfjwQ-CEq6eAJ-3">
          <mxGeometry relative="1" as="geometry" />
        </mxCell>
        <mxCell id="-fQMSUDnfjwQ-CEq6eAJ-2" value="Segmentation&lt;br&gt;Unit" style="rounded=0;whiteSpace=wrap;html=1;fillColor=#dae8fc;strokeColor=#6c8ebf;" vertex="1" parent="1">
          <mxGeometry x="320" y="330" width="120" height="60" as="geometry" />
        </mxCell>
        <mxCell id="-fQMSUDnfjwQ-CEq6eAJ-7" style="edgeStyle=orthogonalEdgeStyle;rounded=0;orthogonalLoop=1;jettySize=auto;html=1;entryX=0;entryY=0.5;entryDx=0;entryDy=0;" edge="1" parent="1" source="-fQMSUDnfjwQ-CEq6eAJ-3" target="-fQMSUDnfjwQ-CEq6eAJ-4">
          <mxGeometry relative="1" as="geometry" />
        </mxCell>
        <mxCell id="-fQMSUDnfjwQ-CEq6eAJ-3" value="Paging&lt;br&gt;Unit" style="rounded=0;whiteSpace=wrap;html=1;fillColor=#dae8fc;strokeColor=#6c8ebf;" vertex="1" parent="1">
          <mxGeometry x="520" y="330" width="120" height="60" as="geometry" />
        </mxCell>
        <mxCell id="-fQMSUDnfjwQ-CEq6eAJ-4" value="Physical&lt;br&gt;Memory" style="rounded=0;whiteSpace=wrap;html=1;fillColor=#dae8fc;strokeColor=#6c8ebf;" vertex="1" parent="1">
          <mxGeometry x="700" y="430" width="120" height="60" as="geometry" />
        </mxCell>
        <mxCell id="2" value="&lt;font color=&quot;#67ab9f&quot;&gt;Logical&lt;br&gt;Addrss&lt;br&gt;(segment&lt;br&gt;&amp;nbsp;+ &lt;br&gt;offset)&lt;br&gt;&lt;/font&gt;" style="text;html=1;align=center;verticalAlign=middle;resizable=0;points=[];autosize=1;" vertex="1" parent="1">
          <mxGeometry x="240" y="380" width="70" height="80" as="geometry" />
        </mxCell>
        <mxCell id="-fQMSUDnfjwQ-CEq6eAJ-8" value="&lt;font color=&quot;#67ab9f&quot; style=&quot;font-size: 16px&quot;&gt;Linear&lt;br&gt;Addrss&lt;/font&gt;" style="text;html=1;align=center;verticalAlign=middle;resizable=0;points=[];autosize=1;" vertex="1" parent="1">
          <mxGeometry x="440" y="385" width="70" height="40" as="geometry" />
        </mxCell>
        <mxCell id="-fQMSUDnfjwQ-CEq6eAJ-9" value="&lt;font color=&quot;#67ab9f&quot; style=&quot;font-size: 15px&quot;&gt;Physical&lt;br&gt;Addrss&lt;/font&gt;" style="text;html=1;align=center;verticalAlign=middle;resizable=0;points=[];autosize=1;" vertex="1" parent="1">
          <mxGeometry x="640" y="315" width="70" height="40" as="geometry" />
        </mxCell>
        <mxCell id="-fQMSUDnfjwQ-CEq6eAJ-10" value="&lt;font style=&quot;font-size: 20px&quot;&gt;&lt;font color=&quot;#67ab9f&quot;&gt;Get a logical view of programs&lt;br&gt;+&lt;br&gt;Reduces the side effect of the fragmentation&lt;/font&gt;&lt;br&gt;&lt;/font&gt;" style="text;html=1;align=center;verticalAlign=middle;resizable=0;points=[];autosize=1;" vertex="1" parent="1">
          <mxGeometry x="200" y="490" width="410" height="50" as="geometry" />
        </mxCell>
      </root>
    </mxGraphModel>
  </diagram>
</mxfile>
